<?xml version="1.0" encoding="utf-8"?>
<!-- Generator: Adobe Illustrator 16.0.0, SVG Export Plug-In . SVG Version: 6.00 Build 0)  -->
<!DOCTYPE svg PUBLIC "-//W3C//DTD SVG 1.1//EN" "http://www.w3.org/Graphics/SVG/1.1/DTD/svg11.dtd">
<svg version="1.1" id="Layer_1" xmlns="http://www.w3.org/2000/svg" xmlns:xlink="http://www.w3.org/1999/xlink" x="0px" y="0px"
	 width="567px" height="171px" viewBox="0 0 567 171" enable-background="new 0 0 567 171" xml:space="preserve">
<g>
	<g>
		<g>
			<path fill="#FCFAFC" d="M115.154,117.787l11.983-34.328h3.07h0.072h9.646v49.142h-9.718v-30.89l-7.965,22.746
				c-0.95,2.736-1.681,6.037,0.584,7.581c-2.632,1.335-6.212,1.264-8.257,0.491c-3.581-1.332-5.48-4.913-6.577-8.072l-7.672-22.113
				v30.257H90.6c0-13.899,0-27.8,0-41.771c0-4.563,3.215-7.371,8.331-7.371h4.312L115.154,117.787z"/>
		</g>
		<g>
			<path fill="#FCFAFC" d="M154.022,96.705l2.996,17.9c0.145,0.928,0.292,1.828,0.439,2.704c0.146,0.878,0.267,1.78,0.364,2.703
				h0.148c0.097-0.878,0.193-1.753,0.292-2.63c0.096-0.877,0.193-1.753,0.293-2.631l2.411-18.047h11.034l-7.965,29.736
				c-0.781,2.924-1.779,5.822-2.997,8.697c-1.217,2.873-2.752,5.382-4.602,7.524c-1.656,1.851-3.35,3.227-5.08,4.13
				c-1.729,0.9-3.006,1.446-3.836,1.643l-3.214-9.791c0.829-0.244,1.631-0.561,2.411-0.949c0.778-0.391,1.509-0.854,2.192-1.389
				c1.266-0.976,2.24-2.143,2.923-3.507c0.34-0.585,0.511-1.069,0.511-1.462c0-0.242-0.025-0.462-0.072-0.656
				c-0.049-0.195-0.123-0.414-0.22-0.658L141.82,96.705H154.022z"/>
		</g>
		<g>
			<path fill="#FCFAFC" d="M181.604,71.627c2.015-0.437,4.36-0.752,7.038-0.94c2.677-0.19,5.525-0.285,8.548-0.285
				c2.961,0,5.936,0.269,8.928,0.802c2.992,0.534,5.684,1.774,8.079,3.722c1.824,1.506,3.132,3.313,3.921,5.418
				c0.784,2.105,1.18,4.257,1.18,6.456c0,2.637-0.713,5.229-2.137,7.774c-1.426,2.543-3.719,4.538-6.884,5.982v0.377
				c1.832,0.565,3.443,1.337,4.834,2.31c1.392,0.975,2.544,2.119,3.461,3.439c0.916,1.32,1.613,2.748,2.086,4.287
				c0.476,1.539,0.711,3.096,0.711,4.664c0,2.641-0.408,4.982-1.229,7.021c-0.817,2.041-1.983,3.85-3.495,5.418
				c-1.952,2.074-4.708,3.707-8.265,4.901c-3.558,1.194-8.358,1.79-14.405,1.79c-2.394,0-4.645-0.063-6.754-0.188
				c-2.108-0.127-3.981-0.315-5.619-0.567V71.627z M196.21,96.412h2.355c1.947,0,3.518-0.754,4.711-2.262s1.791-3.393,1.791-5.654
				c0-2.072-0.487-3.816-1.461-5.23c-0.973-1.413-2.436-2.12-4.382-2.12c-1.319,0-2.326,0.125-3.014,0.376V96.412z M196.21,123.458
				c0.372,0.126,0.744,0.187,1.119,0.187c0.374,0,0.778,0,1.215,0c1.991,0,3.765-0.659,5.32-1.979
				c1.554-1.318,2.334-3.391,2.334-6.219c0-2.699-0.764-4.76-2.289-6.172c-1.525-1.414-3.284-2.12-5.274-2.12h-2.426V123.458z"/>
			<path fill="#FCFAFC" d="M278.411,68.99h14.606v65.209h-14.606V68.99z"/>
			<path fill="#FCFAFC" d="M350.907,101.322c0-2.45-0.032-4.931-0.095-7.444c-0.063-2.511-0.156-4.962-0.281-7.351h12.533
				l0.754,5.277h0.188c1.256-1.82,2.888-3.281,4.898-4.383c2.01-1.097,4.208-1.648,6.597-1.648c2.45,0,4.491,0.47,6.126,1.414
				c1.632,0.942,2.952,2.23,3.958,3.864c1.004,1.634,1.711,3.533,2.121,5.702c0.407,2.165,0.609,4.507,0.609,7.019v29.118h-14.604
				v-28.648c0-1.632-0.269-3.076-0.803-4.334c-0.534-1.256-1.522-1.885-2.968-1.885c-1.571,0-2.796,0.912-3.677,2.734
				c-0.186,0.439-0.359,1.037-0.518,1.791c-0.156,0.753-0.235,1.602-0.235,2.543v27.799h-14.605V101.322z"/>
			<path fill="#FCFAFC" d="M420.66,132.231c-0.565,0.252-1.587,0.519-3.062,0.799c-1.476,0.285-3.126,0.426-4.947,0.426
				c-6.221,0-11.185-1.979-14.89-5.937c-3.707-3.957-5.561-9.706-5.561-17.244c0-3.705,0.551-7.053,1.652-10.037
				c1.096-2.982,2.637-5.543,4.615-7.68c1.979-2.135,4.35-3.77,7.113-4.901c2.766-1.13,5.811-1.694,9.141-1.694
				c1.571,0,2.969,0.125,4.194,0.376s2.121,0.502,2.686,0.754l-1.696,11.308c-0.503-0.125-1.115-0.267-1.836-0.424
				c-0.723-0.155-1.555-0.235-2.498-0.235c-2.701,0-4.87,1.035-6.502,3.109c-1.635,2.072-2.45,5.027-2.45,8.858
				c0,3.706,0.769,6.628,2.31,8.765c1.538,2.135,3.656,3.201,6.359,3.201c1.634,0,3.078-0.281,4.336-0.846L420.66,132.231z"/>
			<path fill="#FCFAFC" d="M260.368,126.665c-13.116,13.029-35.269,4.167-35.269-17.638c0-13.986,10.596-23.974,21.979-23.539
				c11.119,0.435,12.944,10.336,10.856,14.072c-1.91-2.867-6.08-3.65-9.38-3.65c-16.072,0-16.419,26.498,0,26.498
				c9.207,0,11.813-9.209,11.813-17.288V91.394v-4.776h11.293v44.998h-11.293V126.665z"/>
			<path fill="#FCFAFC" d="M333.672,127.232c-13.12,13.033-35.279,4.171-35.279-17.639c0-13.991,10.6-23.982,21.984-23.547
				c11.123,0.434,12.949,10.338,10.861,14.075c-1.912-2.866-6.083-3.648-9.383-3.648c-16.078,0-16.424,26.501,0,26.501
				c9.209,0,11.816-9.211,11.816-17.291v-13.73v-4.778h11.297v45.011h-11.297V127.232z"/>
			<path fill="#FCFAFC" d="M436.605,103.148c3.596,3.07,8.857,2.807,13.244,2.368c11.14-0.964,5.523-11.665-3.857-11.138
				c-6.668,0.352-12.632,5.963-12.809,13.858c-0.174,6.577,3.684,13.155,9.911,14.207c4.476,0.79,9.475-0.614,13.07-4.297
				l9.207,4.475c-4.735,7.103-11.313,9.997-19.734,9.997c-23.505,0-29.643-27.278-16.838-40.698
				c4.65-4.999,11.315-6.926,17.806-6.926c21.661,0,26.398,24.556,7.891,29.117C441.867,117.271,433.097,111.833,436.605,103.148z"
				/>
		</g>
	</g>
	<g>
		<g>
			<g>
				<path fill="#405458" d="M284.151,4.355c28.355,0,55.034,5.525,78.365,15.251l-11.368,42.68
					c-19.482-7.329-42.683-11.116-67.537-11.116c-24.983,0-48.144,3.82-67.507,11.231l-11.29-42.393
					C228.376,10.034,255.406,4.355,284.151,4.355 M284.151,2.355c-27.978,0-55.682,5.468-80.117,15.812
					c-0.917,0.389-1.409,1.394-1.153,2.356l11.29,42.393c0.146,0.548,0.518,1.008,1.022,1.266c0.285,0.146,0.597,0.219,0.91,0.219
					c0.242,0,0.484-0.044,0.715-0.132c18.97-7.261,42.066-11.099,66.792-11.099c24.614,0,47.726,3.799,66.833,10.988
					c0.228,0.085,0.467,0.128,0.704,0.128c0.315,0,0.629-0.074,0.915-0.222c0.502-0.259,0.872-0.718,1.018-1.264l11.367-42.68
					c0.258-0.967-0.238-1.976-1.162-2.361C339.11,7.683,311.746,2.355,284.151,2.355L284.151,2.355z"/>
			</g>
		</g>
		<path fill="#F7F7F7" d="M204.814,20.009l11.29,42.393c19.363-7.411,42.523-11.231,67.507-11.231
			c24.854,0,48.055,3.787,67.537,11.116l11.368-42.68c-23.331-9.726-50.01-15.251-78.365-15.251
			C255.406,4.355,228.376,10.034,204.814,20.009z"/>
		<g>
			<g>
				<path fill="none" stroke="#5E7B80" stroke-width="3" stroke-miterlimit="10" d="M359.95,29.244
					c-0.077-0.031-0.154-0.062-0.231-0.092"/>
				<path fill="none" stroke="#5E7B80" stroke-width="3" stroke-miterlimit="10" stroke-dasharray="0.5072,5.0723" d="
					M354.983,27.339c-21.482-7.895-45.475-12.352-70.832-12.352c-26.684,0-51.858,4.929-74.183,13.612"/>
				<path fill="none" stroke="#5E7B80" stroke-width="3" stroke-miterlimit="10" d="M207.608,29.535
					c-0.077,0.031-0.154,0.063-0.231,0.094"/>
			</g>
		</g>
		<polygon fill="#D95435" points="272.221,50.078 260.356,28.064 282.413,44.277 		"/>
		<path fill="#D95435" d="M283.611,51.171c6.171,0,12.237,0.24,18.173,0.701c-3.221-6.492-9.891-10.969-17.633-10.969
			c-7.708,0-14.37,4.445-17.597,10.902C272.128,51.399,277.817,51.171,283.611,51.171z"/>
	</g>
	<text transform="matrix(1 0 0 1 126.8416 166.8115)" fill="#D95435" font-family="'ITCAvantGardePro-Bk'" font-size="15.9821">GERENCIAMENTO DE MASSA CORPORAL</text>
</g>
</svg>
